<?xml version="1.0" standalone="no"?>
<!DOCTYPE svg PUBLIC "-//W3C//DTD SVG 20010904//EN"
 "http://www.w3.org/TR/2001/REC-SVG-20010904/DTD/svg10.dtd">
<svg version="1.0" xmlns="http://www.w3.org/2000/svg"
 width="780.000000pt" height="780.000000pt" viewBox="0 0 780.000000 780.000000"
 preserveAspectRatio="xMidYMid meet">
<metadata>
Created by potrace 1.11, written by Peter Selinger 2001-2013
</metadata>
<g transform="translate(0.000000,780.000000) scale(0.100000,-0.100000)"
fill="#000000" stroke="none">
<path d="M4091 7744 c-45 -13 -194 -77 -521 -227 -30 -14 -58 -26 -62 -27 -4
0 -44 -19 -88 -40 -44 -22 -82 -40 -85 -40 -2 0 -53 -22 -111 -50 -58 -27
-109 -50 -113 -50 -3 0 -23 -9 -43 -19 -19 -11 -39 -17 -42 -14 -3 4 -6 1 -6
-5 0 -7 -4 -12 -10 -12 -5 0 -53 -20 -106 -45 -53 -25 -98 -45 -100 -45 -2 0
-41 -18 -86 -39 -73 -35 -132 -61 -148 -66 -9 -3 -144 -66 -182 -85 -20 -10
-38 -17 -41 -14 -2 2 -10 -2 -17 -11 -7 -8 -18 -15 -25 -15 -13 0 -222 -95
-280 -127 -53 -29 -117 -86 -154 -138 -34 -47 -70 -113 -75 -139 -2 -6 -8 -30
-14 -52 -24 -83 -6 -274 29 -309 5 -5 9 -15 9 -23 0 -40 120 -174 195 -218 54
-31 145 -65 156 -58 5 3 9 1 9 -3 0 -14 154 -13 213 1 49 12 114 38 267 109
104 47 155 70 160 72 3 1 30 13 60 27 76 35 191 87 330 151 25 11 47 21 50 22
3 1 30 13 60 27 30 14 80 37 110 51 30 14 62 27 70 29 8 2 17 5 20 8 5 5 42
23 205 95 33 15 83 38 111 51 28 13 56 24 62 24 7 0 12 5 12 10 0 6 6 10 13
10 8 0 41 14 75 30 34 17 64 30 66 30 2 0 44 19 93 42 48 23 90 42 93 43 10 1
107 47 188 88 187 95 294 272 286 472 -3 75 -3 77 -24 145 -13 42 -26 67 -74
145 -26 42 -131 127 -189 154 -108 49 -244 63 -346 35z"/>
<path d="M6005 6946 c-52 -13 -114 -38 -250 -101 -167 -78 -262 -121 -380
-173 -49 -22 -124 -55 -165 -74 -41 -20 -113 -52 -160 -73 -47 -21 -123 -56
-170 -78 -47 -22 -87 -41 -90 -42 -23 -5 -80 -30 -80 -36 0 -4 -11 -10 -24
-13 -27 -7 -103 -41 -272 -121 -174 -84 -268 -193 -311 -360 -12 -50 -11 -177
2 -228 17 -67 56 -157 67 -157 4 0 8 -6 8 -13 0 -23 108 -126 166 -159 151
-85 326 -88 499 -8 44 20 114 51 155 69 41 18 82 37 90 42 8 5 22 12 30 15 8
3 35 15 60 26 25 12 63 29 85 38 22 10 72 32 110 50 39 17 95 43 125 57 30 13
73 33 95 43 84 39 183 84 265 120 47 21 126 57 175 80 88 41 135 62 145 65 3
0 36 15 73 33 38 18 73 32 78 32 5 0 9 5 9 12 0 6 3 9 6 5 10 -10 94 51 145
105 26 27 58 70 70 96 13 26 27 49 30 52 3 3 11 28 18 55 70 276 -70 541 -334
630 -63 21 -205 27 -270 11z"/>
<path d="M1138 6324 c-2 -1 -16 -5 -33 -7 -57 -11 -74 -16 -120 -36 -25 -11
-48 -20 -52 -20 -3 1 -9 -3 -12 -8 -3 -4 -26 -24 -51 -42 -25 -19 -48 -41 -53
-47 -4 -7 -13 -19 -21 -26 -36 -36 -84 -132 -103 -203 -4 -17 -14 -128 -14
-160 0 -58 43 -175 91 -248 94 -140 248 -221 420 -219 72 1 125 6 125 12 0 1
10 3 23 6 32 6 119 51 167 87 185 140 247 410 143 627 -26 54 -28 56 -99 131
-30 32 -61 59 -67 59 -7 0 -12 4 -12 9 0 10 -100 55 -156 70 -38 10 -170 21
-176 15z"/>
<path d="M7060 5834 c-75 -16 -119 -31 -136 -45 -8 -6 -14 -8 -14 -4 0 4 -6 3
-12 -2 -7 -6 -56 -29 -108 -53 -116 -51 -166 -74 -250 -112 -36 -17 -103 -47
-150 -68 -47 -21 -124 -56 -172 -79 -48 -23 -89 -41 -92 -41 -2 0 -56 -25
-121 -55 -64 -30 -118 -55 -119 -55 -2 0 -39 -17 -82 -37 -43 -20 -81 -38 -84
-38 -3 -1 -32 -14 -65 -29 -33 -15 -99 -45 -147 -67 -211 -93 -346 -158 -372
-178 -102 -78 -182 -204 -205 -321 -13 -65 -7 -175 14 -245 50 -174 213 -319
393 -352 43 -8 156 -8 192 0 60 12 275 102 305 127 8 7 15 10 15 6 0 -4 11 1
24 10 14 8 28 15 31 14 3 -1 29 10 58 23 113 54 208 97 212 97 2 0 51 23 110
50 59 28 109 50 111 50 2 0 32 13 67 29 63 30 150 70 242 111 53 24 150 69
225 103 25 11 47 21 50 22 6 2 63 28 160 72 36 17 88 40 115 53 110 49 172 82
200 106 17 14 37 31 46 38 42 30 119 154 135 216 19 76 22 101 19 168 -4 101
-9 123 -53 211 -32 68 -96 144 -157 191 -53 40 -147 76 -225 86 -78 11 -104
10 -160 -2z"/>
<path d="M3406 5762 c-2 -1 -15 -5 -30 -8 -34 -6 -99 -32 -206 -81 -47 -22
-102 -46 -122 -54 -21 -7 -38 -17 -38 -21 0 -4 -5 -8 -11 -8 -6 0 -38 -13 -72
-28 -34 -16 -79 -35 -99 -42 -21 -8 -38 -17 -38 -21 0 -4 -12 -10 -27 -14 -42
-10 -129 -72 -179 -128 -114 -127 -157 -318 -109 -487 6 -19 27 -68 35 -80 5
-8 18 -31 29 -50 50 -91 180 -184 306 -218 41 -11 199 -10 247 2 35 8 109 40
286 122 40 19 74 34 76 34 4 0 154 69 254 117 117 55 205 151 257 278 26 62
29 82 29 175 0 162 -44 269 -157 378 -69 66 -129 98 -242 128 -22 7 -184 12
-189 6z"/>
<path d="M1790 5052 c-50 -5 -145 -35 -226 -72 -104 -48 -138 -64 -144 -65 -3
0 -25 -11 -50 -24 -25 -13 -47 -24 -50 -24 -3 1 -22 -8 -42 -18 -21 -11 -38
-16 -38 -12 0 5 -4 3 -8 -2 -4 -6 -41 -26 -82 -44 -41 -18 -102 -46 -135 -61
-33 -15 -85 -38 -115 -51 -30 -12 -58 -28 -62 -33 -4 -6 -8 -8 -8 -5 0 4 -69
-24 -152 -63 -84 -38 -173 -79 -198 -90 -25 -11 -73 -34 -108 -49 -34 -16 -64
-29 -67 -29 -32 0 -225 -165 -225 -193 0 -5 -9 -22 -21 -38 -11 -16 -17 -29
-13 -29 3 0 2 -6 -4 -12 -46 -57 -52 -265 -11 -373 13 -33 25 -62 29 -65 3 -3
12 -18 20 -33 42 -82 217 -209 305 -223 159 -25 233 -13 401 62 67 30 126 54
132 54 5 0 15 7 22 15 7 8 18 15 25 15 12 0 178 74 237 106 15 8 31 15 35 16
8 2 86 36 203 90 36 16 126 57 200 90 74 33 178 81 230 105 52 25 100 46 105
47 6 1 46 21 90 44 71 37 185 131 185 153 0 4 6 14 14 22 21 20 58 105 72 164
14 59 15 203 2 203 -5 0 -6 5 -3 10 17 27 -60 182 -127 256 -95 105 -268 169
-418 156z"/>
<path d="M4270 4552 c-77 -8 -195 -52 -243 -91 -28 -22 -98 -92 -119 -119 -59
-75 -97 -202 -93 -317 6 -191 114 -356 287 -438 236 -113 498 -40 649 179 17
25 32 51 33 57 2 7 8 24 14 38 75 184 25 406 -125 552 -98 97 -265 154 -403
139z"/>
<path d="M7225 4332 c-64 -7 -190 -57 -422 -168 -51 -24 -94 -44 -97 -44 -2 0
-37 -15 -78 -34 -147 -68 -305 -139 -388 -176 -47 -21 -121 -54 -165 -75 -44
-20 -93 -42 -110 -50 -16 -7 -56 -25 -87 -39 -31 -14 -62 -26 -67 -26 -6 0
-11 -4 -11 -10 0 -5 -6 -10 -13 -10 -8 0 -27 -6 -43 -14 -27 -13 -98 -46 -214
-99 -25 -11 -47 -21 -50 -21 -3 -1 -32 -14 -65 -30 -33 -16 -64 -30 -70 -31
-5 -2 -46 -20 -90 -41 -44 -21 -82 -39 -85 -39 -3 -1 -40 -18 -84 -38 -43 -20
-80 -37 -82 -37 -4 0 -162 -73 -254 -118 -124 -60 -224 -176 -270 -312 -29
-85 -17 -290 19 -334 6 -7 8 -16 4 -19 -3 -4 0 -14 8 -23 7 -9 18 -24 24 -34
30 -50 63 -89 106 -125 48 -40 141 -92 179 -101 11 -2 30 -6 43 -9 90 -23 267
-1 329 39 13 8 26 15 30 16 5 0 34 12 65 27 32 15 60 27 63 28 3 0 15 6 26 13
12 6 24 8 28 5 3 -3 6 -1 6 5 0 7 4 12 9 12 5 0 35 12 67 27 33 15 61 27 64
28 3 1 32 14 65 29 127 58 173 80 265 121 52 23 130 59 173 79 43 20 80 36 82
36 2 0 41 17 87 39 45 21 106 49 133 61 28 12 82 37 120 55 39 18 80 35 93 39
12 4 22 11 22 15 0 4 10 8 22 8 13 1 24 7 26 13 2 5 9 10 16 10 11 0 172 71
371 165 33 16 63 29 66 29 8 1 262 117 279 127 8 5 22 12 30 15 8 3 33 14 56
25 23 10 44 19 48 19 16 0 124 81 161 121 114 122 159 301 119 472 -8 34 -18
64 -22 67 -4 3 -20 31 -37 64 -84 163 -300 271 -500 248z"/>
<path d="M3148 4035 c-2 -2 -19 -5 -38 -8 -19 -3 -44 -8 -56 -10 -20 -5 -315
-135 -472 -208 -46 -22 -85 -39 -87 -39 -2 0 -45 -20 -97 -44 -51 -24 -127
-58 -168 -76 -41 -18 -102 -45 -135 -60 -87 -40 -462 -209 -515 -233 -25 -11
-74 -33 -110 -49 -75 -34 -105 -48 -175 -79 -27 -12 -77 -34 -110 -49 -33 -15
-85 -39 -115 -52 -30 -14 -80 -36 -110 -49 -30 -12 -58 -28 -62 -33 -4 -6 -8
-8 -8 -4 0 3 -27 -7 -60 -23 -33 -16 -63 -29 -65 -29 -3 0 -37 -16 -75 -34
-39 -19 -70 -32 -70 -29 0 3 -11 -2 -25 -11 -14 -9 -25 -14 -25 -10 0 4 -6 1
-14 -5 -8 -7 -50 -29 -93 -50 -98 -48 -185 -131 -231 -223 -18 -36 -34 -74
-37 -84 -2 -11 -8 -37 -13 -59 -22 -98 3 -243 61 -344 41 -74 133 -162 204
-197 32 -16 60 -29 63 -29 3 -1 25 -7 50 -14 96 -28 239 -13 350 37 19 8 37
16 40 16 3 1 30 13 60 28 30 14 78 36 105 48 28 12 75 33 105 47 30 14 100 45
155 70 55 24 118 53 140 63 35 16 92 42 190 85 17 7 74 34 128 59 54 25 101
46 103 46 3 0 31 12 62 27 31 15 59 28 62 28 3 1 21 8 40 17 19 9 62 28 95 43
33 15 83 37 110 50 28 13 73 33 100 45 28 13 77 35 110 50 33 15 89 40 125 56
36 15 68 32 71 37 3 5 9 8 13 6 4 -1 35 11 69 26 34 16 89 41 122 56 33 15
132 59 220 99 267 119 319 144 333 157 7 7 16 13 20 13 12 1 76 63 113 110 95
120 126 283 85 445 -41 159 -183 299 -354 350 -43 13 -176 27 -184 20z"/>
<path d="M3778 2765 c-286 -47 -485 -345 -414 -619 34 -128 86 -209 186 -286
53 -42 92 -63 141 -79 64 -21 83 -24 164 -26 279 -8 514 222 513 502 0 76 -8
130 -25 173 -3 8 -7 20 -8 25 -2 6 -17 35 -35 65 -62 103 -183 198 -294 232
-60 18 -163 24 -228 13z"/>
<path d="M6588 2475 c-207 -42 -368 -203 -406 -405 -8 -44 -7 -165 2 -205 13
-63 63 -175 78 -175 4 0 8 -5 8 -10 0 -20 75 -93 134 -132 74 -47 171 -79 256
-82 57 -2 85 1 168 18 48 10 152 70 199 114 79 74 137 178 159 282 8 38 8 176
0 189 -3 4 -8 23 -11 41 -8 46 -68 157 -108 200 -35 39 -127 115 -136 114 -3
0 -29 10 -58 22 -81 36 -192 47 -285 29z"/>
<path d="M2679 2259 c-57 -8 -108 -26 -219 -77 -36 -16 -85 -38 -110 -50 -127
-57 -613 -278 -665 -302 -75 -35 -138 -63 -145 -64 -20 -4 -106 -64 -142 -99
-55 -52 -115 -140 -122 -177 -1 -3 -4 -9 -8 -15 -10 -16 -30 -127 -30 -165 -1
-232 144 -430 367 -501 120 -38 251 -24 393 42 37 17 81 37 97 44 17 7 65 29
108 49 44 20 83 36 88 36 5 0 9 4 9 8 0 5 6 9 13 9 6 1 98 40 202 88 244 112
259 119 265 120 3 1 37 16 75 34 39 18 86 40 105 49 122 55 211 151 268 285
23 55 26 76 27 183 0 88 -4 126 -14 138 -7 9 -11 16 -8 16 10 0 -27 75 -68
137 -101 151 -298 237 -486 212z"/>
<path d="M5488 1975 c-2 -3 -15 -7 -29 -9 -13 -2 -24 -5 -24 -6 0 -1 -7 -3
-15 -5 -8 -2 -28 -9 -45 -16 -16 -7 -32 -13 -35 -14 -6 -2 -45 -19 -195 -87
-66 -30 -142 -65 -170 -78 -27 -12 -92 -42 -144 -66 -51 -24 -95 -44 -97 -44
-2 0 -34 -14 -71 -32 -38 -17 -70 -32 -73 -33 -8 -3 -193 -87 -270 -123 -30
-15 -57 -27 -60 -28 -9 -1 -52 -21 -130 -57 -41 -19 -219 -100 -395 -180 -425
-192 -538 -247 -510 -247 5 0 -2 -8 -15 -17 -14 -10 -33 -28 -43 -40 -10 -13
-25 -29 -32 -37 -24 -23 -73 -128 -86 -181 -55 -234 47 -461 260 -577 63 -34
138 -54 218 -57 65 -2 180 16 189 30 3 5 11 9 19 9 8 0 66 25 130 55 65 30
119 55 120 55 2 0 36 15 77 34 171 78 231 105 248 111 3 1 34 15 70 32 96 45
164 76 275 126 55 25 129 58 165 75 359 163 447 202 456 202 6 0 17 7 24 15 7
8 16 12 21 9 5 -3 9 0 9 6 0 6 4 9 9 5 5 -3 12 -1 16 5 3 5 15 10 26 10 10 0
19 3 19 8 0 4 21 16 48 26 64 26 277 123 371 169 92 45 207 186 236 290 2 4 3
8 5 10 1 1 3 9 5 17 2 8 6 29 10 45 11 50 4 154 -15 227 -40 148 -193 306
-335 343 -16 5 -37 10 -45 12 -22 6 -187 12 -192 8z"/>
</g>
</svg>
