<?xml version="1.0" standalone="no"?>
<!DOCTYPE svg PUBLIC "-//W3C//DTD SVG 20010904//EN"
 "http://www.w3.org/TR/2001/REC-SVG-20010904/DTD/svg10.dtd">
<svg version="1.0" xmlns="http://www.w3.org/2000/svg"
 width="272.000000pt" height="272.000000pt" viewBox="0 0 272.000000 272.000000"
 preserveAspectRatio="xMidYMid meet">
<metadata>
Created by potrace 1.11, written by Peter Selinger 2001-2013
</metadata>
<g transform="translate(0.000000,272.000000) scale(0.100000,-0.100000)"
fill="#000000" stroke="none">
<path d="M1170 2689 c-294 -55 -570 -199 -781 -409 -117 -117 -175 -194 -240
-320 -75 -145 -105 -241 -134 -435 -8 -54 -8 -248 0 -310 41 -314 169 -576
390 -800 192 -195 434 -324 715 -381 88 -18 314 -25 400 -12 271 40 523 165
714 355 91 90 123 138 106 158 -21 25 -53 16 -95 -26 -52 -52 -214 -161 -290
-195 -222 -99 -423 -126 -660 -89 -11 2 -47 10 -81 19 -340 88 -607 364 -713
736 -40 142 -42 153 -46 325 -3 107 0 170 10 220 21 97 92 237 158 311 100
110 273 208 422 240 65 13 250 13 303 -2 80 -21 208 -86 294 -148 89 -65 133
-74 166 -31 53 67 -55 214 -214 291 -115 55 -209 75 -338 70 -196 -7 -360 -59
-523 -168 -40 -26 -73 -44 -73 -40 0 15 126 138 174 171 118 82 249 120 429
125 423 12 705 -186 806 -566 20 -75 25 -100 36 -203 19 -174 68 -224 141
-144 76 84 75 235 -2 449 -144 402 -462 605 -929 594 -160 -3 -369 -58 -517
-135 -39 -21 -5 18 57 63 156 116 328 172 525 172 285 -1 552 -112 750 -313
182 -184 276 -380 318 -661 10 -64 8 -304 -2 -375 -22 -150 12 -182 130 -123
106 52 131 108 138 300 9 251 -72 518 -227 748 -180 266 -479 466 -802 535
-123 27 -382 29 -515 4z"/>
</g>
</svg>
